<?xml version="1.0" encoding="utf-8"?>
<!-- Generator: Adobe Illustrator 17.1.0, SVG Export Plug-In . SVG Version: 6.00 Build 0)  -->
<!DOCTYPE svg PUBLIC "-//W3C//DTD SVG 1.1//EN" "http://www.w3.org/Graphics/SVG/1.1/DTD/svg11.dtd">
<svg version="1.1" id="Слой_1" xmlns="http://www.w3.org/2000/svg" xmlns:xlink="http://www.w3.org/1999/xlink" x="0px" y="0px"
	 viewBox="0 0 100 100" enable-background="new 0 0 100 100" xml:space="preserve">
<path fill="#212121" d="M81.9,35.2l-5.5-6L76.2,29c-0.9-1-2.1-1.9-3.4-2.6l-0.1,0c-1.3-0.6-2.7-0.9-4.2-0.9c-2.8,0-5.4,1.2-7.3,3.1
	c-1.8,1.8-3,4.4-3,7.2v0.1v0v0c0.3,3.2,0.7,6.5,1.1,9.7c3.8-6.4,10.8-10.7,18.7-10.7C79.4,34.9,80.6,35,81.9,35.2L81.9,35.2z
	 M78.1,41.5L78.1,41.5c-8.4,0-15.2,6.9-15.2,15.2c0,8.4,6.8,15.2,15.2,15.2c8.4,0,15.2-6.8,15.2-15.2C93.3,48.3,86.4,41.5,78.1,41.5
	L78.1,41.5z M21.9,34.9L21.9,34.9c7.9,0,14.9,4.3,18.8,10.7c0.3-3,0.7-6,1.1-9c0-0.2,0-0.6,0-0.8c0-2.8-1.1-5.4-3-7.2
	c-1.9-1.9-4.4-3.1-7.3-3.1c-1.5,0-2.9,0.3-4.2,0.9l-0.2,0c-1.3,0.6-2.5,1.5-3.4,2.6l-0.2,0.3l-5.4,6C19.4,35,20.6,34.9,21.9,34.9
	L21.9,34.9z M21.9,41.5L21.9,41.5c-8.4,0-15.2,6.9-15.2,15.2c0,8.4,6.8,15.2,15.2,15.2c8.4,0,15.2-6.8,15.2-15.2
	C37.1,48.3,30.4,41.5,21.9,41.5L21.9,41.5z M42.3,64.4L42.3,64.4c-1.2,3.3-3.2,6.1-5.7,8.4c-3.9,3.5-9,5.7-14.7,5.7
	c-6,0-11.5-2.5-15.4-6.4l0,0c-3.9-3.9-6.4-9.4-6.4-15.4c0-1.7,0.2-3.4,0.6-4.9l0-0.1c0.3-1.1,0.6-2.1,1-3.2c1-2.6,2.6-4.9,4.5-6.9
	l14.1-15.4l0.1-0.1c1.4-1.6,3-2.9,5-3.8l0.2-0.1c1.9-0.8,3.9-1.3,6.1-1.3c4.1,0,7.7,1.6,10.5,4.3l0,0c1.1,1.1,2.1,2.5,2.8,4
	c1.4-1.2,3.3-1.9,5.3-1.9c2,0,3.8,0.7,5.2,1.9c0.7-1.5,1.7-2.9,2.8-3.9l0,0c2.7-2.7,6.4-4.3,10.4-4.3c2.2,0,4.2,0.5,6.1,1.3l0.2,0.1
	c1.9,0.9,3.5,2.1,4.9,3.8l0.1,0.1l14.1,15.4c1.9,2,3.4,4.3,4.5,6.9c0.2,0.6,0.4,1.1,0.6,1.7l0,0c0.8,2.7,1.1,5.3,0.9,8.1h0
	c-0.4,5.4-2.7,10.1-6.3,13.7h0l0,0c-3.9,3.9-9.4,6.4-15.4,6.4c-5.7,0-10.8-2.2-14.7-5.7c-2.5-2.3-4.4-5.1-5.7-8.3
	c-2,1.8-4.7,3-7.7,3C47,67.5,44.4,66.4,42.3,64.4L42.3,64.4z M54.5,45.7L54.5,45.7c-0.2-3.1-0.6-6.4-0.8-9.5v-0.1l0,0l-0.1-0.4l0,0
	v-0.2c0-1-0.4-1.9-1-2.6c-0.7-0.6-1.6-1.1-2.6-1.1c-1,0-1.9,0.5-2.5,1.1c-0.7,0.6-1.1,1.5-1.1,2.6l-0.1,0.2l-0.8,10
	c1.4-0.6,2.9-0.9,4.4-0.9C51.6,44.8,53.1,45.1,54.5,45.7L54.5,45.7z M52.8,53.5L52.8,53.5c-0.7-0.7-1.7-1.1-2.8-1.1
	c-1,0-2,0.4-2.7,1.1c-0.7,0.7-1.1,1.6-1.1,2.7c0,1,0.4,2,1.1,2.7C48,59.6,49,60,50,60c1.1,0,2-0.5,2.7-1.1l0.1-0.1h0.1
	c0.6-0.7,1.1-1.7,1.1-2.7C53.9,55.1,53.4,54.1,52.8,53.5L52.8,53.5z"/>
</svg>
