<?xml version="1.0" encoding="utf-8"?>
<!-- Generator: Adobe Illustrator 17.1.0, SVG Export Plug-In . SVG Version: 6.00 Build 0)  -->
<!DOCTYPE svg PUBLIC "-//W3C//DTD SVG 1.1//EN" "http://www.w3.org/Graphics/SVG/1.1/DTD/svg11.dtd">
<svg version="1.1" id="Слой_1" xmlns="http://www.w3.org/2000/svg" xmlns:xlink="http://www.w3.org/1999/xlink" x="0px" y="0px"
	 viewBox="0 0 100 100" enable-background="new 0 0 100 100" xml:space="preserve">
<path fill="#212121" d="M54.9,86.5c0-2.1,1.7-3.8,3.8-3.8c2.1,0,3.8,1.7,3.8,3.8v9.7c0,2.1-1.7,3.9-3.8,3.9h-0.3H41.6
	c-2.1,0-3.8-1.8-3.8-3.9h0v-6.8c-1.1-0.4-2.2-0.8-3.4-1.3l0,0l0,0c-1.1-0.5-2.2-1-3.3-1.6l-4.8,4.8c-1.5,1.5-3.9,1.5-5.4,0h0
	l-0.1-0.1l-12-12.1c-1.5-1.5-1.5-3.9,0-5.4l4.8-4.8c-0.5-1.1-1.1-2.2-1.5-3.3c-0.5-1.1-0.9-2.3-1.3-3.4H4c-2.2,0-3.9-1.7-3.9-3.8
	l0.1-0.4V41.5c0-2.1,1.7-3.8,3.8-3.8v-0.1h6.8c0.4-1.1,0.8-2.3,1.3-3.4c0.5-1.1,1-2.2,1.5-3.3l-4.8-4.8c-1.5-1.4-1.5-3.9,0-5.4v-0.1
	l0.1-0.1L20.9,8.6c1.5-1.5,3.9-1.5,5.4,0l4.8,4.8c1.1-0.5,2.2-1.1,3.3-1.6l0.2-0.1c1.1-0.5,2.1-0.8,3.2-1.2V3.9
	c0-2.1,1.7-3.9,3.9-3.9h0.1h17.1c2.1,0,3.8,1.8,3.8,3.9V4v6.7c1.1,0.4,2.3,0.8,3.4,1.3c1.1,0.4,2.2,1,3.2,1.6L74,8.6
	c1.5-1.5,3.9-1.5,5.4,0l0.1,0l0.1,0.1l12,12.1c1.5,1.4,1.5,3.9,0,5.4L86.8,31c0.5,1.1,1,2.2,1.5,3.2c0.5,1.1,0.9,2.3,1.2,3.4h6.8
	c2.2,0,3.9,1.8,3.9,3.9v0.4l0,16.8c0,2.1-1.7,3.8-3.8,3.8h-9.7c-2.1,0-3.9-1.7-3.9-3.8c0-2.2,1.7-3.9,3.9-3.9h5.8v-9.5h-5.8
	c-1.8,0-3.3-1.2-3.8-2.9c-0.4-1.8-1-3.6-1.6-5.2c-0.7-1.7-1.6-3.2-2.5-4.7c-1-1.5-0.8-3.6,0.5-4.9l4.2-4.2l-6.7-6.7l-4,4
	c-1.2,1.3-3.3,1.6-4.9,0.7c-1.5-1-3.2-1.8-4.8-2.5c-1.6-0.7-3.3-1.2-5-1.6c-1.8-0.4-3.1-1.9-3.1-3.8V7.7h-9.4v5.9
	c0,1.7-1.2,3.3-3,3.7c-1.7,0.4-3.4,0.9-4.9,1.6L37.3,19c-1.7,0.7-3.3,1.5-4.8,2.5c-1.4,0.9-3.5,0.7-4.7-0.6l-4.2-4.1l-6.7,6.7l4,4
	c1.4,1.2,1.7,3.3,0.7,4.9c-0.9,1.6-1.7,3.2-2.5,4.9c-0.7,1.6-1.2,3.2-1.6,5c-0.3,1.7-1.9,3.1-3.8,3.1H7.8v9.5h5.9
	c1.7,0,3.3,1.1,3.7,3c0.4,1.7,1,3.5,1.7,5.1c0.7,1.7,1.5,3.3,2.5,4.8c0.9,1.5,0.8,3.5-0.5,4.7l-4.2,4.2l6.7,6.7l4-4
	c1.3-1.4,3.3-1.7,4.9-0.7c1.5,1,3.1,1.8,4.8,2.5l0,0c1.6,0.7,3.2,1.2,5,1.6c1.8,0.4,3.1,1.9,3.1,3.8v5.9h9.4V86.5L54.9,86.5z
	 M50.1,24.1L50.1,24.1c10.4,0,20,6.4,24,16c1.3,3.1,2,6.4,2,9.9s-0.7,6.9-2,9.9L74,60.2c-0.8,1.9-1.8,3.6-3,5.3l16.4,16.4
	c1.5,1.5,1.5,3.9,0,5.5c-1.5,1.5-3.9,1.5-5.5,0L65.6,70.9c-1.7,1.2-3.5,2.3-5.5,3.1c-3.1,1.3-6.4,2-9.9,2c-3.5,0-6.8-0.7-9.9-2
	L40,73.9c-3.1-1.3-5.9-3.2-8.2-5.5C27,63.6,24.2,56.9,24.2,50c0-3.5,0.7-6.9,2-9.9l0.1-0.2c1.4-3.1,3.2-5.9,5.5-8.2
	C36.7,26.9,43.3,24.1,50.1,24.1L50.1,24.1z M50.1,31.8L50.1,31.8c-4.9,0-9.4,1.9-12.9,5.4c-1.6,1.6-2.9,3.6-3.9,5.7l-0.1,0.3
	c-0.8,2.1-1.4,4.5-1.4,6.9c0,7.3,4.3,13.9,11.1,16.8l0.2,0.1c2.1,0.9,4.5,1.4,6.9,1.4c2.5,0,4.9-0.5,7-1.4h0.1
	c6.7-2.8,11.2-9.5,11.2-16.9c0-2.5-0.5-4.8-1.4-6.9v-0.1C64.2,36.2,57.5,31.8,50.1,31.8L50.1,31.8z"/>
</svg>
