<?xml version="1.0" encoding="utf-8"?>
<!-- Generator: Adobe Illustrator 17.1.0, SVG Export Plug-In . SVG Version: 6.00 Build 0)  -->
<!DOCTYPE svg PUBLIC "-//W3C//DTD SVG 1.1//EN" "http://www.w3.org/Graphics/SVG/1.1/DTD/svg11.dtd">
<svg version="1.1" id="Слой_1" xmlns="http://www.w3.org/2000/svg" xmlns:xlink="http://www.w3.org/1999/xlink" x="0px" y="0px"
	 viewBox="0 0 100 100" enable-background="new 0 0 100 100" xml:space="preserve">
<path fill="#212121" d="M80.9,93.1L47.6,71c-1.1-0.7-1.7-2-1.7-3.3h-0.1v-0.1h-4.1l7.6,21.9c0.7,2-0.4,4.3-2.5,5l-7.4,2.6l-7.5,2.6
	c-2.1,0.7-4.3-0.4-5-2.5L16.3,67c-4-1-7.6-3.2-10.2-6.2c-3.2-3.5-5.2-8.3-5.2-13.4c0-5.5,2.3-10.6,5.9-14.2v-0.1l0.1-0.1
	c3.7-3.6,8.6-5.9,14.1-5.9h24.7v0c0-1.5,0.8-2.8,2-3.5L81.2,1.7c1.8-1.2,4.3-0.7,5.5,1.1c0.5,0.7,0.7,1.4,0.7,2.2l0,0V32
	c2.7,0.7,5.2,2.1,7.1,4l0.2,0.2c2.9,2.9,4.7,6.8,4.7,11.3c0,4.4-1.8,8.3-4.7,11.2c-2,2-4.5,3.4-7.3,4.2V90c0,2.2-1.8,4-4,4
	C82.5,94,81.6,93.7,80.9,93.1L80.9,93.1z M49,59.7L49,59.7V35.3H21.1c-3.4,0-6.4,1.4-8.6,3.5c-2.2,2.2-3.6,5.3-3.6,8.6
	c0,3.1,1.2,5.9,3.1,8.1c1.9,2.2,4.6,3.6,7.7,4c1.5,0.2,2.8,1.1,3.3,2.6l10,28.7l3.7-1.3l3.7-1.3l-8.1-23.1c-0.2-0.5-0.3-1-0.3-1.6
	c0-2.2,1.8-4,4-4H49L49,59.7z M53.8,31.4L53.8,31.4v32.1v0.1v0.1v0.1v1.7l25.6,17V12.4l-25.6,17v1.8v0.1V31.4L53.8,31.4z M87.3,37
	L87.3,37v20.8c1.5-0.6,2.8-1.4,3.9-2.5l0,0c2-2,3.3-4.8,3.3-7.9c0-3.1-1.2-5.9-3.3-7.9l-0.1-0.1C90.1,38.4,88.8,37.6,87.3,37
	L87.3,37z"/>
</svg>
