<?xml version="1.0" encoding="utf-8"?>
<!-- Generator: Adobe Illustrator 17.1.0, SVG Export Plug-In . SVG Version: 6.00 Build 0)  -->
<!DOCTYPE svg PUBLIC "-//W3C//DTD SVG 1.1//EN" "http://www.w3.org/Graphics/SVG/1.1/DTD/svg11.dtd">
<svg version="1.1" id="Слой_1" xmlns="http://www.w3.org/2000/svg" xmlns:xlink="http://www.w3.org/1999/xlink" x="0px" y="0px"
	 viewBox="0 0 100 100" enable-background="new 0 0 100 100" xml:space="preserve">
<path fill="#212121" d="M50.2,9.7c10.9,0,20.3,8,21.9,18.8c1.6-0.6,3.4-0.8,5.2-0.8c4.8,0,9.3,2,12.5,5.2c3.2,3.1,5.2,7.6,5.2,12.5
	c0,4.7-1.8,8.9-4.8,12l4.2,4.2c1.8,1.8,3.3,4,4.2,6.2c1,2.3,1.5,4.8,1.5,7.4v5.3c0,1.3-0.4,2.8-1.2,3.9c-0.8,1.2-2.1,2.1-3.8,2.3
	c-0.1,0-0.3,0-0.4,0h-4.1v1.5c0,1.8-1.4,3.2-3.2,3.2H50.2H13.1c-1.8,0-3.3-1.4-3.3-3.2v-1.5H5.7c-0.1,0-0.3,0-0.4,0
	c-1.6-0.2-2.9-1.1-3.8-2.3c-0.8-1.1-1.2-2.6-1.2-3.9v-5.3c0-2.7,0.5-5.1,1.5-7.4l0,0c1.8-4.3,5.2-7.2,8.4-10.5
	c-3-3.2-4.8-7.4-4.8-12c0-4.9,2-9.3,5.2-12.5c3.2-3.2,7.7-5.2,12.5-5.2c1.8,0,3.6,0.3,5.2,0.8C29.9,17.7,39.3,9.7,50.2,9.7L50.2,9.7
	z M50.2,84.9L50.2,84.9h10c0-4.9,0-9.8,0-14.7c0-1.1,0.8-1.9,1.9-1.9s2,0.9,2,1.9v8.6h8.4c0.1-0.3,0.2-0.5,0.2-0.8v-6.9
	c0-9.3-6.2-13.6-12.2-19.6c-3.1,1.6-6.6,2.5-10.2,2.5c-3.7,0-7.2-0.9-10.2-2.5c-6,6-12.2,10.4-12.2,19.6V78c0,0.3,0,0.6,0.1,0.8h8.4
	v-8.6c0-1.1,0.9-1.9,2-1.9c1.1,0,1.9,0.9,1.9,1.9c0,4.9,0,9.8,0,14.7H50.2L50.2,84.9z M50.2,47.6L50.2,47.6
	c8.6,0,15.7-6.9,15.7-15.7c0-8.7-7.1-15.8-15.7-15.8c-8.7,0-15.8,7.1-15.8,15.8C34.5,40.7,41.7,47.6,50.2,47.6L50.2,47.6z
	 M16.3,84.9L16.3,84.9h9.4c-1.2-0.4-2.2-1.2-2.9-2.3c-1-1.3-1.5-3-1.5-4.6v-6.9c0-2.9,0.5-5.6,1.4-8.2c-2.6,0-5.1-0.7-7.3-1.7
	c-2.7,2.7-6.2,5.5-7.7,9l0,0l0,0c-0.6,1.5-0.9,3.1-0.9,4.9v5h5.6v-5.7c0-1.1,0.9-2,2-2s1.9,0.9,1.9,2V84.9L16.3,84.9z M28.3,35.4
	L28.3,35.4c-0.6-0.3-1.2-0.6-1.9-0.8c-1.1-0.3-2.2-0.5-3.4-0.5c-3.1,0-5.9,1.2-7.9,3.3c-2,2.1-3.3,4.9-3.3,7.9
	c0,3.1,1.3,5.9,3.3,7.9c2.1,2.1,4.8,3.3,7.9,3.3c1.3,0,2.4-0.1,3.6-0.6c2.4-2.9,5.4-5.5,8-8.2C31.3,44.3,29.1,40,28.3,35.4
	L28.3,35.4z M84.2,84.9L84.2,84.9V74.5c0-1.1,0.8-2,1.9-2s2,0.9,2,2v5.7h5.6v-5c0-1.8-0.3-3.4-0.9-4.9c-0.6-1.5-1.5-2.9-2.8-4.1
	L85,61.2c-2.2,1.1-4.7,1.7-7.3,1.7c0.9,2.6,1.4,5.3,1.4,8.2V78c0,1.6-0.5,3.3-1.5,4.6c-0.7,1-1.7,1.8-2.9,2.3H84.2L84.2,84.9z
	 M72.1,35.4L72.1,35.4c-0.8,4.9-2.9,8.8-6.4,12.3c2.7,2.6,5.7,5.2,8.1,8.2c0.3,0.1,1,0.4,1.4,0.4c0.7,0.1,1.4,0.2,2.3,0.2
	c3,0,5.9-1.2,7.9-3.3c2-2,3.3-4.8,3.3-7.9c0-3.1-1.2-5.9-3.3-7.9c-2-2-4.8-3.3-7.9-3.3c-1.2,0-2.4,0.2-3.4,0.5
	C73.3,34.8,72.7,35.1,72.1,35.4L72.1,35.4z"/>
</svg>
