<?xml version="1.0" encoding="utf-8"?>
<!-- Generator: Adobe Illustrator 17.1.0, SVG Export Plug-In . SVG Version: 6.00 Build 0)  -->
<!DOCTYPE svg PUBLIC "-//W3C//DTD SVG 1.1//EN" "http://www.w3.org/Graphics/SVG/1.1/DTD/svg11.dtd">
<svg version="1.1" id="Слой_1" xmlns="http://www.w3.org/2000/svg" xmlns:xlink="http://www.w3.org/1999/xlink" x="0px" y="0px"
	 viewBox="0 0 100 100" enable-background="new 0 0 100 100" xml:space="preserve">
<path fill="#212121" d="M37.9,0.5h24.4H64H64h4.5c2.2,0,3.9,1.8,3.9,3.9c0,2.1-1.7,3.8-3.9,3.8h-0.8v30.6l29,50.8
	c2.5,4.6-0.8,10.3-6,10.3v0H9.5v0c-5.2,0-8.6-5.7-6-10.3l0.1-0.2l28.9-50.6V8.2h-0.8c-2.1,0-3.9-1.7-3.9-3.8c0-2.1,1.7-3.9,3.9-3.9
	h4.5h0.1h0.1H37.9L37.9,0.5z M26.3,81L26.3,81c1.2,0,2.3,1.1,2.3,2.3c0,1.3-1,2.3-2.3,2.3c-1.3,0-2.3-1-2.3-2.3
	C23.9,82.1,25,81,26.3,81L26.3,81z M38.2,74.3L38.2,74.3c1.2,0,2.3,1,2.3,2.2c0,1.3-1,2.3-2.3,2.3c-1.3,0-2.3-1-2.3-2.3
	C35.9,75.3,36.9,74.3,38.2,74.3L38.2,74.3z M34.7,59L34.7,59c1.2,0,2.3,1.1,2.3,2.3c0,1.3-1.1,2.3-2.3,2.3c-1.3,0-2.3-1-2.3-2.3
	C32.4,60,33.5,59,34.7,59L34.7,59z M35.2,82.1L35.2,82.1c2.1,0,3.8,1.7,3.8,3.8c0,2.1-1.7,3.8-3.8,3.8c-2.1,0-3.8-1.7-3.8-3.8
	C31.4,83.8,33.1,82.1,35.2,82.1L35.2,82.1z M30.3,67.5L30.3,67.5c2.1,0,3.8,1.8,3.8,3.9c0,2.1-1.7,3.8-3.8,3.8
	c-2.1,0-3.9-1.7-3.9-3.8C26.5,69.3,28.2,67.5,30.3,67.5L30.3,67.5z M35,49.9L35,49.9h30.2L60.8,42c-0.4-0.6-0.7-1.4-0.7-2.1V8.2
	H40.2v31.7l0,0c0,0.7-0.2,1.3-0.5,1.9L35,49.9L35,49.9z M67.9,54.5L67.9,54.5H32.4L10.8,92.3h78.7L67.9,54.5L67.9,54.5z M46,85
	L46,85c-1.2,0-2.3-1-2.3-2.2c0-1.2,1-2.3,2.3-2.3h8.3c1.3,0,2.4,1.1,2.4,2.3c0,1.2-1.1,2.2-2.4,2.2H46L46,85z M48.3,72.8L48.3,72.8
	c-1.2,0-2.3-1-2.3-2.3c0-1.3,1-2.3,2.3-2.3H52c1.2,0,2.3,1.1,2.3,2.3c0,1.3-1,2.3-2.3,2.3H48.3L48.3,72.8z M48.3,48.3L48.3,48.3
	c-1.2,0-2.3-1-2.3-2.3c0-1.3,1-2.3,2.3-2.3H52c1.2,0,2.3,1,2.3,2.3c0,1.3-1,2.3-2.3,2.3H48.3L48.3,48.3z M46,60.6L46,60.6
	c-1.2,0-2.3-1.1-2.3-2.3c0-1.3,1-2.3,2.3-2.3h8.3c1.3,0,2.4,1,2.4,2.3c0,1.2-1.1,2.3-2.4,2.3H46L46,60.6z M46,36.1L46,36.1
	c-1.2,0-2.3-1.1-2.3-2.3c0-1.3,1-2.4,2.3-2.4h8.3c1.3,0,2.4,1.1,2.4,2.4c0,1.2-1.1,2.3-2.4,2.3H46L46,36.1z"/>
</svg>
