<?xml version="1.0" encoding="utf-8"?>
<!-- Generator: Adobe Illustrator 17.1.0, SVG Export Plug-In . SVG Version: 6.00 Build 0)  -->
<!DOCTYPE svg PUBLIC "-//W3C//DTD SVG 1.1//EN" "http://www.w3.org/Graphics/SVG/1.1/DTD/svg11.dtd">
<svg version="1.1" id="Слой_1" xmlns="http://www.w3.org/2000/svg" xmlns:xlink="http://www.w3.org/1999/xlink" x="0px" y="0px"
	 viewBox="0 0 100 100" enable-background="new 0 0 100 100" xml:space="preserve">
<path fill="#212121" d="M11.1,51c-2.1,0-3.8-1.7-3.8-3.9c0-2.1,1.7-3.9,3.8-3.9h13.4c11.1,0,19-15,19-24.7c0-1.5-0.2-3-0.5-4.2
	c-0.8-3.1-0.4-5.9,0.7-8.2L43.7,6c1-1.8,2.4-3.3,4.1-4.2s3.8-1.5,5.9-1.4c2.8,0,5.7,1.2,8.1,3.5c5.9,5.6,4.8,14.5,3.8,22.2
	c-0.2,2-0.5,3.9-0.5,5.6c-0.3,5.6,1,6.9,6.6,6.9h11.5c9.2,0,13.7,10.5,8.5,17.3L91.6,56l0.1,0.1l0.2,0.2c3.3,4.6,2.6,11.1-2,14.8
	c2.7,5.4,0.5,12.2-5.2,14.8c2.4,6.7-2.6,14.3-10.2,14.3v0l-24.9,0h-0.1h-0.1c-2.2,0-4.5-0.1-6.7-0.5c-2.3-0.3-4.6-0.7-6.6-1.4
	c-3.4-1-5.7-1.9-7.7-2.7c-4.6-1.8-7.7-3.1-17.4-3.1c-2.1,0-3.8-1.7-3.8-3.9c0-2.1,1.7-3.9,3.8-3.9c11.1,0,14.8,1.5,20.2,3.6
	c2,0.8,4.3,1.7,7.1,2.6c1.7,0.6,3.5,0.9,5.3,1.2c1.9,0.2,3.9,0.4,5.9,0.4h0h0.1l24.8,0c3.2,0,4.3-4.5,1.3-5.8
	c-1.5-0.5-2.6-2-2.6-3.7c0-2.1,1.8-3.9,3.9-3.9h3.2c3.2,0,4.2-4.5,1.3-5.8c-1.5-0.5-2.6-2-2.6-3.7c0-2.1,1.8-3.8,3.9-3.8h0.4
	c3.5,0,4.2-5,0.9-6L84,59.7H84c-1.3-0.3-2.4-1.3-2.7-2.7c-0.5-2,0.7-4.2,2.7-4.7c3.4-0.8,2.7-6-0.8-6H71.7c-9.9,0-14.8-4.9-14.3-15
	c0.1-1.9,0.4-4,0.6-6.1c0.8-6,1.6-12.8-1.4-15.7c-1-1-2.1-1.4-3.1-1.4c-0.7,0-1.3,0.1-1.8,0.5c-0.4,0.2-0.9,0.6-1.1,1.1l-0.1,0.1
	c-0.4,0.7-0.5,1.6-0.2,2.7c0.5,2,0.8,4.1,0.8,6.1C51.1,32.6,40,51,24.4,51H11.1L11.1,51z"/>
</svg>
